<?xml version="1.0" encoding="utf-8"?>
<!-- Generator: Adobe Illustrator 25.0.0, SVG Export Plug-In . SVG Version: 6.00 Build 0)  -->
<svg version="1.1" id="Glyph" xmlns="http://www.w3.org/2000/svg" xmlns:xlink="http://www.w3.org/1999/xlink" x="0px" y="0px"
	 viewBox="0 0 25.3 21.5" style="enable-background:new 0 0 25.3 21.5;" xml:space="preserve">
<style type="text/css">
	.st0{fill:#D2D2D2;}
</style>
<path id="XMLID_354_" class="st0" d="M22.7,5.5c0,0.7-0.5,1.3-1.1,1.3H7.8c-0.6,0-1.1-0.5-1.1-1.3s0.5-1.3,1.1-1.3h13.7
	C22.1,4.3,22.7,4.8,22.7,5.5z"/>
<path id="XMLID_358_" class="st0" d="M2.5,5.4C2.5,6.2,3.1,7,4,7s1.5-0.7,1.5-1.6S4.8,4,4,4S2.5,4.7,2.5,5.4z"/>
<path id="XMLID_2_" class="st0" d="M22.7,10.5c0,0.7-0.5,1.3-1.1,1.3H7.8c-0.6,0-1.1-0.5-1.1-1.3s0.5-1.3,1.1-1.3h13.7
	C22.1,9.3,22.7,9.8,22.7,10.5z"/>
<path id="XMLID_1_" class="st0" d="M2.5,10.4C2.5,11.2,3.1,12,4,12s1.5-0.7,1.5-1.6S4.8,9,4,9S2.5,9.7,2.5,10.4z"/>
<path id="XMLID_4_" class="st0" d="M22.7,15.5c0,0.7-0.5,1.3-1.1,1.3H7.8c-0.6,0-1.1-0.5-1.1-1.3s0.5-1.3,1.1-1.3h13.7
	C22.1,14.3,22.7,14.8,22.7,15.5z"/>
<path id="XMLID_3_" class="st0" d="M2.5,15.4C2.5,16.2,3.1,17,4,17s1.5-0.7,1.5-1.6S4.8,14,4,14S2.5,14.7,2.5,15.4z"/>
</svg>
