<!DOCTYPE svg PUBLIC "-//W3C//DTD SVG 1.1//EN" "http://www.w3.org/Graphics/SVG/1.1/DTD/svg11.dtd">
<!-- Uploaded to: SVG Repo, www.svgrepo.com, Transformed by: SVG Repo Mixer Tools -->
<svg width="800px" height="800px" viewBox="-20 0 104 104" version="1.1" xmlns="http://www.w3.org/2000/svg" xmlns:xlink="http://www.w3.org/1999/xlink" fill="#ffffff" stroke="#ffffff">
<g id="SVGRepo_bgCarrier" stroke-width="0"/>
<g id="SVGRepo_tracerCarrier" stroke-linecap="round" stroke-linejoin="round"/>
<g id="SVGRepo_iconCarrier"> <!-- Uploaded to: SVG Repo, www.svgrepo.com, Transformed by: SVG Repo Mixer Tools --> <title>34-multimeda-mic-stand-up</title> <desc>Created with Sketch.</desc> <defs> </defs> <g id="3.Multimedia" stroke-width="4.16" fill="none" fill-rule="evenodd" stroke-linecap="round" stroke-linejoin="round"> <g id="Multimedia-(Color)" transform="translate(-718.000000, -702.000000)" stroke="ffffff" stroke-width="4.16"> <g id="34-multimeda-mic-stand-up" transform="translate(720.000000, 704.000000)"> <rect id="Layer-1" fill="" x="10" y="0" width="40" height="70" rx="20"> </rect> <path d="M10,20 L20,20" id="Layer-2" fill=""> </path> <path d="M10,30 L20,30" id="Layer-3" fill=""> </path> <path d="M10,40 L20,40" id="Layer-4" fill=""> </path> <path d="M10,50 L20,50" id="Layer-5" fill=""> </path> <path d="M40,50 L50,50" id="Layer-6" fill=""> </path> <path d="M40,40 L50,40" id="Layer-7" fill=""> </path> <path d="M40,30 L50,30" id="Layer-8" fill=""> </path> <path d="M40,20 L50,20" id="Layer-9" fill=""> </path> <path d="M60,49.9927367 C60,66.5652906 46.5721855,80 30,80 L30,80 C13.4314575,80 0,66.5673744 0,49.9927367" id="Layer-10"> </path> <path d="M30,80 L30,100" id="Layer-11" fill=""> </path> <path d="M10,100 L50,100" id="Layer-12" fill=""> </path> <path d="M0,50 L3,50" id="Layer-13" fill=""> </path> <path d="M57,50 L60,50" id="Layer-14" fill=""> </path> </g> </g> </g> </g>
</svg>