<?xml version="1.0" encoding="utf-8"?>
<!-- Generator: Adobe Illustrator 21.0.0, SVG Export Plug-In . SVG Version: 6.00 Build 0)  -->
<svg version="1.1" id="Layer_1" xmlns="http://www.w3.org/2000/svg" xmlns:xlink="http://www.w3.org/1999/xlink" x="0px" y="0px"
	 viewBox="0 0 358 358" style="enable-background:new 0 0 358 358;" xml:space="preserve">
<style type="text/css">
	.st0{fill:#3AB54A;}
	.st1{fill:#FFFFFF;}
</style>
<g>
	<circle class="st0" cx="179" cy="179" r="179"/>
	<path class="st1" d="M142.9,270.9c-6.8,0.5-12.5-2.4-17.4-7c-19.3-18.2-38.7-36.4-57.9-54.7c-10.5-10.1-11.3-24.4-2.3-34.1
		c9.3-10,24.2-10.4,34.8-0.6c12.4,11.4,24.7,22.9,36.8,34.7c3.5,3.4,5.4,3.8,9,0c34.8-35.8,69.7-71.4,104.7-107
		c4.8-4.9,9.3-10.3,16.3-12.3c11.2-3,22.1,1,27.6,10.2c5.5,9.2,4.2,20.8-3.8,29.2c-18.2,19-36.6,37.9-55,56.7
		c-24.7,25.4-49.5,50.6-74.2,76C156.5,267.3,150.9,271.3,142.9,270.9z"/>
</g>
</svg>
