<?xml version="1.0" encoding="utf-8"?>
<!-- Generator: Adobe Illustrator 25.0.0, SVG Export Plug-In . SVG Version: 6.00 Build 0)  -->
<svg version="1.1" id="Layer_1" xmlns="http://www.w3.org/2000/svg" xmlns:xlink="http://www.w3.org/1999/xlink" x="0px" y="0px"
	 viewBox="0 0 800 800" style="enable-background:new 0 0 800 800;" xml:space="preserve">
<style type="text/css">
	.st0{fill:none;stroke:#FFFFFF;stroke-width:37.5;stroke-linecap:round;stroke-miterlimit:50;}
	.st1{fill:none;stroke:#FFFFFF;stroke-width:37.5;stroke-miterlimit:50;}
</style>
<polyline class="st0" points="547.9,268 655.9,300.6 688.4,192.6 "/>
<path class="st0" d="M346.2,517.6V327.9c0.1-0.5-0.3-1-0.8-1.1c-0.3-0.1-0.7,0.1-0.9,0.3c0,0-26.6,38-43,49.2"/>
<path class="st1" d="M459.2,323h0.1c32.4,0,58.7,26.3,58.7,58.7v77.2c0,32.4-26.3,58.7-58.7,58.7h-0.1c-32.4,0-58.7-26.3-58.7-58.7
	v-77.2C400.4,349.3,426.7,323,459.2,323z"/>
<path class="st0" d="M667.6,464.9c-21.1,86.3-82.7,157.1-165.4,189.8c-140.7,55.6-299.8-13.3-355.4-154s13.3-299.8,154-355.4
	s299.8,13.3,355.4,154"/>
</svg>
