<svg fill="#9b9b9b" height="24px" width="24px" version="1.1" id="Layer_1" xmlns="http://www.w3.org/2000/svg" xmlns:xlink="http://www.w3.org/1999/xlink" 
	 viewBox="0 0 508 508" xml:space="preserve">
<g>
	<g>
		<path d="M439.3,152.8c4.6-2.5,7.5-7.2,7.5-12.4V14.1c0-7.8-6.3-14.1-14.1-14.1H145.9c-3.7,0-7.3,1.5-10,4.1L65.4,74.7
			c-2.6,2.6-4.1,6.2-4.1,10v129.5c0,4.8,2.4,9.3,6.5,11.9l15.5,9.9v103.1L67.7,349c-4,2.6-6.5,7.1-6.5,11.9v133
			c0,7.8,6.3,14.1,14.1,14.1h357.3c7.8,0,14.1-6.3,14.1-14.1V225.4c0-5.2-2.9-10-7.5-12.4l-18.9-10.1V163L439.3,152.8z M418.6,131.9
			h-0.1L399.6,142c-4.6,2.5-7.5,7.2-7.5,12.4v56.8c0,5.2,2.9,10,7.5,12.4l18.9,10.1v246h-329V368.6l15.5-9.9c4-2.6,6.5-7.1,6.5-11.9
			V228.3c0-4.8-2.4-9.3-6.5-11.9l-15.5-9.9v-116l62.3-62.3h266.8V131.9z"/>
	</g>
</g>
<g>
	<g>
		<path d="M353.8,245.9H154.2c-7.8,0-14.1,6.3-14.1,14.1v166.4c0,7.8,6.3,14.1,14.1,14.1h199.6c7.8,0,14.1-6.3,14.1-14.1V260
			C367.9,252.2,361.6,245.9,353.8,245.9z M339.6,412.3H168.3V274.1h171.3V412.3z"/>
	</g>
</g>
<g>
	<g>
		<path d="M371.5,49.4c-7.8,0-14.1,6.3-14.1,14.1v46.9c0,7.8,6.3,14.1,14.1,14.1s14.1-6.3,14.1-14.1V63.5
			C385.6,55.7,379.3,49.4,371.5,49.4z"/>
	</g>
</g>
<g>
	<g>
		<path d="M312.8,49.4c-7.8,0-14.1,6.3-14.1,14.1v46.9c-0.1,7.8,6.3,14.1,14.1,14.1s14.1-6.3,14.1-14.1V63.5
			C326.9,55.7,320.6,49.4,312.8,49.4z"/>
	</g>
</g>
<g>
	<g>
		<path d="M254,49.4c-7.8,0-14.1,6.3-14.1,14.1v46.9c0,7.8,6.3,14.1,14.1,14.1c7.8,0,14.1-6.3,14.1-14.1V63.5
			C268.1,55.7,261.8,49.4,254,49.4z"/>
	</g>
</g>
<g>
	<g>
		<path d="M195.2,49.4c-7.8,0-14.1,6.3-14.1,14.1v46.9c0,7.8,6.4,14.1,14.1,14.1c7.8,0,14.1-6.3,14.1-14.1V63.5
			C209.3,55.7,203,49.4,195.2,49.4z"/>
	</g>
</g>
<g>
	<g>
		<path d="M136.5,77.6c-7.8,0-14.1,6.3-14.1,14.1v46.9c0,7.8,6.3,14.1,14.1,14.1s14.1-6.3,14.1-14.1V91.7
			C150.6,83.9,144.3,77.6,136.5,77.6z"/>
	</g>
</g>
</svg>